<?xml version="1.0" encoding="UTF-8" standalone="no"?>
<!-- Created with Inkscape (http://www.inkscape.org/) -->

<svg
   xmlns:dc="http://purl.org/dc/elements/1.1/"
   xmlns:cc="http://creativecommons.org/ns#"
   xmlns:rdf="http://www.w3.org/1999/02/22-rdf-syntax-ns#"
   xmlns:svg="http://www.w3.org/2000/svg"
   xmlns="http://www.w3.org/2000/svg"
   xmlns:xlink="http://www.w3.org/1999/xlink"
   xmlns:sodipodi="http://sodipodi.sourceforge.net/DTD/sodipodi-0.dtd"
   xmlns:inkscape="http://www.inkscape.org/namespaces/inkscape"
   width="40"
   height="32"
   id="svg2"
   version="1.1"
   inkscape:version="0.48.1 "
   sodipodi:docname="ic_item_watched.svg"
   inkscape:export-filename="..\ic_item_watched_active.png"
   inkscape:export-xdpi="90"
   inkscape:export-ydpi="90">
  <defs
     id="defs4">
    <linearGradient
       id="linearGradient3814">
      <stop
         style="stop-color:#278327;stop-opacity:1;"
         offset="0"
         id="stop3816" />
      <stop
         style="stop-color:#174d17;stop-opacity:1;"
         offset="1"
         id="stop3818" />
    </linearGradient>
    <linearGradient
       id="linearGradient3772">
      <stop
         style="stop-color:#8c8c8c;stop-opacity:1;"
         offset="0"
         id="stop3774" />
      <stop
         style="stop-color:#5a5a5a;stop-opacity:1;"
         offset="1"
         id="stop3776" />
    </linearGradient>
    <radialGradient
       inkscape:collect="always"
       xlink:href="#linearGradient3814"
       id="radialGradient3820"
       cx="20"
       cy="1036.3622"
       fx="20"
       fy="1036.3622"
       r="20"
       gradientTransform="matrix(1,0,0,0.8,0,207.27244)"
       gradientUnits="userSpaceOnUse" />
  </defs>
  <sodipodi:namedview
     id="base"
     pagecolor="#ffffff"
     bordercolor="#666666"
     borderopacity="1.0"
     inkscape:pageopacity="0.0"
     inkscape:pageshadow="2"
     inkscape:zoom="3.959798"
     inkscape:cx="-57.936945"
     inkscape:cy="-14.786083"
     inkscape:document-units="px"
     inkscape:current-layer="layer1"
     showgrid="false"
     fit-margin-top="0"
     fit-margin-left="0"
     fit-margin-right="0"
     fit-margin-bottom="0"
     inkscape:window-width="1496"
     inkscape:window-height="891"
     inkscape:window-x="1369"
     inkscape:window-y="125"
     inkscape:window-maximized="0" />
  <metadata
     id="metadata7">
    <rdf:RDF>
      <cc:Work
         rdf:about="">
        <dc:format>image/svg+xml</dc:format>
        <dc:type
           rdf:resource="http://purl.org/dc/dcmitype/StillImage" />
        <dc:title></dc:title>
      </cc:Work>
    </rdf:RDF>
  </metadata>
  <g
     inkscape:label="Layer 1"
     inkscape:groupmode="layer"
     id="layer1"
     transform="translate(0,-1020.3622)">
    <rect
       style="fill:url(#radialGradient3820);fill-opacity:1;stroke:none;stroke-opacity:1"
       id="rect3770"
       width="40"
       height="32"
       x="0"
       y="1020.3622"
       rx="7.6619039"
       inkscape:export-filename="/home/escabe/devel/trakt-app/trakt-app/assets/hdpi/ic_item_loved_active.png"
       inkscape:export-xdpi="90"
       inkscape:export-ydpi="90" />
    <g
       id="g5161"
       transform="translate(0.60491656,-0.93703754)"
       inkscape:export-filename="..\ic_item_watched_small.png"
       inkscape:export-xdpi="101.48926"
       inkscape:export-ydpi="101.48926">
      <path
         id="path3512"
         d="m 4.614498,1037.5613 c 0,0 14.61574,-16.1382 28.404908,-0.6089 0,0 2.044638,2.5227 0.696075,3.6103 -1.348563,1.0876 -2.044638,-0.3046 -2.392545,-0.522 -0.347907,-0.2174 -0.565577,0.1305 -0.826572,0.5656 -0.260995,0.4351 -12.745187,9.4394 -25.7080431,-1.9575 0,0 14.0501631,11.31 25.3601361,0.7397 0,0 1.261652,-1.3919 -0.04332,-3.0015 -1.304977,-1.6095 -9.135099,-11.7017 -25.490634,1.1743 z"
         inkscape:connector-curvature="0"
         style="fill:#ffffff;fill-opacity:1" />
      <path
         id="path3514"
         d="m 23.641843,1031.2804 c 1.143159,1.121 1.852284,2.683 1.852284,4.4106 0,3.4114 -2.765507,6.1769 -6.176977,6.1769 -3.411471,0 -6.176978,-2.7655 -6.176978,-6.1769 0,-1.6613 0.655882,-3.1696 1.722831,-4.2793 0,0 1.713695,-0.7232 4.454147,-0.7232 2.740451,0 4.324693,0.5919 4.324693,0.5919 z m -7.270026,4.1558 -2.424647,-0.2244 c -0.01409,0.1581 -0.02427,0.3176 -0.02427,0.4794 0,0.8488 0.201488,1.6485 0.5507,2.3628 l 2.190012,-1.0609 c -0.193398,-0.3933 -0.304843,-0.8339 -0.304843,-1.3016 2.61e-4,-0.087 0.006,-0.1712 0.01305,-0.2553 z m 2.901746,-1.964 c -1.249384,0 -2.262046,1.0127 -2.262046,2.2621 0,1.2494 1.012662,2.262 2.262046,2.262 1.249385,0 2.262047,-1.0126 2.262047,-2.262 0,-1.2494 -1.012662,-2.2621 -2.262047,-2.2621 z"
         inkscape:connector-curvature="0"
         style="fill:#ffffff;fill-opacity:1" />
    </g>
  </g>
</svg>
